<svg xmlns="http://www.w3.org/2000/svg" width="132" height="38" viewBox="0 0 132 38" fill="none"><path d="M65.7567 13.9734L58.5717 32.4787H52.7553L45 13.9734H51.2726L55.6445 25.4787L59.6742 13.9734H65.7567Z" fill="black"></path><path d="M72.8938 32.4787H67.1154V13.9734H72.8938V32.4787ZM67.6096 10.6596C66.9507 10.0142 66.6212 9.23227 66.6212 8.31383C66.6212 7.39539 66.9507 6.61348 67.6096 5.96809C68.2686 5.3227 69.0542 5 69.9666 5C70.9043 5 71.7027 5.3227 72.3616 5.96809C73.0459 6.61348 73.3881 7.39539 73.3881 8.31383C73.3881 9.23227 73.0459 10.0142 72.3616 10.6596C71.7027 11.305 70.9043 11.6277 69.9666 11.6277C69.0542 11.6277 68.2686 11.305 67.6096 10.6596Z" fill="black"></path><path d="M82.1503 32.4787H76.3719V5.52128H82.1503V32.4787Z" fill="black"></path><path d="M91.444 32.4787H85.6655V5.52128H91.444V32.4787Z" fill="black"></path><path d="M93.633 27.3777C93.633 25.8138 94.1526 24.5603 95.1917 23.617C96.2308 22.6489 97.574 22.0408 99.2214 21.7926L103.669 21.1223C104.582 20.9982 105.038 20.5762 105.038 19.8564C105.038 19.2855 104.784 18.8138 104.278 18.4415C103.796 18.0443 103.124 17.8457 102.263 17.8457C101.3 17.8457 100.527 18.1188 99.9437 18.6649C99.3861 19.1862 99.082 19.8191 99.0313 20.5638L94.0132 19.5585C94.1399 18.0195 94.9129 16.617 96.3322 15.3511C97.7768 14.0603 99.7663 13.4149 102.301 13.4149C105.165 13.4149 107.268 14.0851 108.611 15.4255C109.98 16.766 110.664 18.4787 110.664 20.5638V29.6117C110.664 30.7784 110.74 31.734 110.892 32.4787H105.684C105.557 31.9823 105.494 31.2872 105.494 30.3936C104.404 32.1312 102.63 33 100.172 33C98.1696 33 96.573 32.4539 95.3818 31.3617C94.216 30.2447 93.633 28.9167 93.633 27.3777ZM101.578 28.9043C102.567 28.9043 103.39 28.6188 104.049 28.0479C104.708 27.4769 105.038 26.5337 105.038 25.2181V24.3989L101.464 24.9574C100.045 25.1809 99.3354 25.8635 99.3354 27.0053C99.3354 27.5266 99.5129 27.9734 99.8677 28.3457C100.248 28.7181 100.818 28.9043 101.578 28.9043Z" fill="black"></path><path d="M111.928 32.4787L118.428 23.2447L111.813 13.9734H118.618L122.002 19.0372L125.309 13.9734H131.772L125.233 23.0213C129.466 28.9291 131.721 32.0816 132 32.4787H125.233L121.736 27.266C121.356 27.8369 120.747 28.7553 119.911 30.0213C119.075 31.2872 118.53 32.1064 118.276 32.4787H111.928Z" fill="black"></path><path fill-rule="evenodd" clip-rule="evenodd" d="M19.5429 16.7339V14.5841H21.6949V16.7339H19.5429ZM19.5429 17.8186H21.6949V19.9684H19.5429V17.8186ZM16.3051 19.9684V17.8186H18.4571V19.9684H16.3051ZM16.3051 16.7339V14.5841H18.4571V16.7339H16.3051ZM12.1367 25.8756C8.99592 22.7187 4.73061 20.6656 0 20.3364C0.329592 25.0622 2.38469 29.3038 5.52551 32.4608C8.68571 35.6177 12.9316 37.6707 17.6622 37.9806C17.352 33.2742 15.2969 29.0133 12.1367 25.8756ZM25.8633 25.8756C22.7031 29.0326 20.6673 33.2742 20.3378 38C25.0684 37.6707 29.3143 35.6177 32.4745 32.4801C35.6347 29.3231 37.6898 25.0816 38 20.3558C33.2694 20.6656 29.0041 22.7187 25.8633 25.8756ZM19 5.63609L30.8653 12.473V19.4648C33.0755 18.5158 35.4796 17.9348 38 17.7798C37.6898 13.0153 35.6347 8.73497 32.4551 5.55861C29.0235 2.13048 24.2541 0 19 0C13.7459 0 8.97653 2.13048 5.5449 5.57798C2.36531 8.73496 0.310204 13.0153 0 17.7798C2.52041 17.9348 4.92449 18.5158 7.13469 19.4648V12.473L9.69388 11.001V7.59225H12.2531V9.52905L19 5.63609ZM9.69388 13.9256V20.7625C11.2449 21.6922 12.6796 22.7961 13.9592 24.0744C16.1888 26.3017 17.9143 28.9939 19 31.9959C20.0857 28.9939 21.8306 26.2824 24.0408 24.0744C25.3204 22.7961 26.7357 21.6922 28.3061 20.7625V13.9256L19 8.56065L9.69388 13.9256Z" fill="#90B0B7"></path></svg>